<?xml version="1.0" encoding="utf-8"?>
<!-- Generator: Adobe Illustrator 21.1.0, SVG Export Plug-In . SVG Version: 6.00 Build 0)  -->
<svg version="1.1" id="Lager_1" xmlns="http://www.w3.org/2000/svg" xmlns:xlink="http://www.w3.org/1999/xlink" x="0px" y="0px"
	 viewBox="0 0 838 226.9" style="enable-background:new 0 0 838 226.9;" xml:space="preserve">
<style type="text/css">
	.st0{fill:#00B0E1;}
	.st1{fill:#8BB13F;}
	.st2{fill:#8D8D8D;}
</style>
<path class="st0" d="M295.3,156h4.2v23.6c0,3.6-0.3,6.2-1,7.6c-0.7,1.4-1.8,2.6-3.4,3.4c-1.6,0.8-3.5,1.3-5.7,1.3
	c-1.7,0-3.3-0.3-5-0.8c-1.6-0.5-3.4-1.5-5.4-2.9l2.2-2.8c2.2,1.3,4,2.2,5.4,2.7c0.9,0.3,1.9,0.5,2.8,0.5c1.2,0,2.3-0.3,3.2-0.9
	c1-0.6,1.7-1.4,2-2.4c0.4-1,0.6-2.9,0.6-5.8V156z"/>
<path class="st0" d="M326.6,156l19.4,34.9h-4.5l-6.5-11.5H317l-6.5,11.5h-4.6l19.7-34.9H326.6z M320.2,147.8c0.9,0,1.7,0.3,2.3,0.8
	c0.6,0.5,1,1.2,1,1.9c0,0.8-0.3,1.4-1,1.9c-0.6,0.5-1.4,0.8-2.3,0.8c-0.9,0-1.7-0.3-2.3-0.8c-0.6-0.5-1-1.2-1-1.9
	c0-0.8,0.3-1.4,1-1.9C318.5,148,319.3,147.8,320.2,147.8z M326.1,163.4l-7.1,12.7h14.2L326.1,163.4z M331.8,147.8
	c0.9,0,1.7,0.3,2.3,0.8c0.6,0.5,1,1.2,1,1.9c0,0.8-0.3,1.4-1,1.9c-0.6,0.5-1.4,0.8-2.3,0.8c-0.9,0-1.7-0.3-2.3-0.8
	c-0.6-0.5-1-1.2-1-1.9c0-0.8,0.3-1.4,1-1.9C330.1,148,330.9,147.8,331.8,147.8z"/>
<path class="st0" d="M352.7,156h8.3c4.6,0,7.8,0.2,9.4,0.5c2.5,0.5,4.5,1.5,6,3.1c1.5,1.6,2.3,3.5,2.3,5.8c0,1.9-0.5,3.6-1.6,5
	c-1.1,1.4-2.6,2.5-4.6,3.3c-2,0.7-4.7,1.1-8.2,1.1l15,16.2h-5.1l-15-16.2h-2.4v16.2h-4.2V156z M356.8,159.4v11.9l7.2,0
	c2.8,0,4.8-0.2,6.2-0.7c1.3-0.4,2.4-1.2,3.1-2.1c0.7-1,1.1-2.1,1.1-3.3c0-1.2-0.4-2.2-1.1-3.2c-0.8-1-1.7-1.6-3-2.1
	c-1.2-0.4-3.3-0.6-6.1-0.6H356.8z"/>
<path class="st0" d="M387.7,190.9V156h0.9l27.7,26.8V156h4.1v34.9h-0.9L392,164.5v26.5H387.7z"/>
<path class="st0" d="M148.4,102.1l19.3,35.7h-4.5l-6.5-11.8h-17.9l-6.5,11.8h-4.6l19.6-35.7H148.4z M147.9,109.7l-7.1,12.9H155
	L147.9,109.7z"/>
<path class="st0" d="M174.2,102.1h4.1v32.3h16v3.4h-20.1V102.1z"/>
<path class="st0" d="M201.8,102.1h4.1v32.3h16v3.4h-20.1V102.1z"/>
<path class="st0" d="M229.5,102.1h23.8v3.5h-19.6v11.2h19.5v3.5h-19.5v14h19.5v3.5h-23.6V102.1z"/>
<path class="st0" d="M259.4,137.8l5.9-35.7h0.7l16.9,29.3l16.7-29.3h0.7l6,35.7h-4.1l-4.1-25.5l-14.7,25.5h-1.1l-14.8-25.7
	l-4.1,25.7H259.4z"/>
<path class="st0" d="M331.4,102.1l19.3,35.7h-4.5l-6.5-11.8h-17.9l-6.5,11.8h-4.6l19.6-35.7H331.4z M330.8,109.7l-7.1,12.9h14.2
	L330.8,109.7z"/>
<path class="st0" d="M356.2,137.8v-35.7h0.9l27.6,27.4v-27.4h4.1v35.7h-0.9l-27.4-27v27H356.2z"/>
<path class="st0" d="M395.6,131.2l3.5-1.8c2.5,3.9,5.3,5.9,8.6,5.9c1.4,0,2.7-0.3,3.9-0.8c1.2-0.6,2.2-1.3,2.8-2.2
	c0.6-0.9,1-1.9,1-3c0-1.2-0.5-2.4-1.4-3.5c-1.3-1.6-3.7-3.5-7.1-5.7c-3.5-2.2-5.6-3.9-6.5-4.9c-1.5-1.7-2.2-3.5-2.2-5.5
	c0-1.6,0.4-3,1.3-4.2c0.9-1.3,2.1-2.3,3.7-3c1.6-0.7,3.3-1.1,5.1-1.1c2,0,3.8,0.4,5.5,1.3c1.7,0.8,3.5,2.4,5.4,4.6l-3.4,2.2
	c-1.6-1.8-2.9-3-4-3.5c-1.1-0.6-2.3-0.8-3.6-0.8c-1.7,0-3,0.4-4.1,1.3s-1.6,2-1.6,3.2c0,0.8,0.2,1.5,0.6,2.3
	c0.4,0.7,1.1,1.5,2.1,2.4c0.5,0.5,2.3,1.6,5.4,3.6c3.6,2.3,6.1,4.3,7.4,6.1c1.3,1.8,2,3.6,2,5.4c0,2.6-1.1,4.8-3.4,6.7
	c-2.3,1.9-5.1,2.9-8.3,2.9c-2.5,0-4.8-0.6-6.9-1.7C399.2,135.8,397.3,133.9,395.6,131.2z"/>
<path class="st0" d="M429.1,102.1h4.1v15h21.1v-15h4.1v35.7h-4.1v-17.2h-21.1v17.2h-4.1V102.1z"/>
<path class="st0" d="M484.6,102.1l19.3,35.7h-4.5l-6.5-11.8h-17.9l-6.5,11.8H464l19.6-35.7H484.6z M478.3,93.7
	c0.9,0,1.7,0.3,2.3,0.8c0.6,0.6,1,1.2,1,2s-0.3,1.4-1,2c-0.6,0.6-1.4,0.8-2.3,0.8s-1.7-0.3-2.3-0.8s-1-1.2-1-2s0.3-1.4,1-2
	C476.6,94,477.4,93.7,478.3,93.7z M484.1,109.7l-7.1,12.9h14.2L484.1,109.7z M489.8,93.7c0.9,0,1.7,0.3,2.3,0.8c0.6,0.6,1,1.2,1,2
	s-0.3,1.4-1,2c-0.6,0.6-1.4,0.8-2.3,0.8c-0.9,0-1.7-0.3-2.3-0.8s-1-1.2-1-2s0.3-1.4,1-2C488.1,94,488.9,93.7,489.8,93.7z"/>
<path class="st0" d="M510.4,102.1h4.1v32.3h16v3.4h-20.1V102.1z"/>
<path class="st0" d="M534.7,131.2l3.5-1.8c2.5,3.9,5.3,5.9,8.6,5.9c1.4,0,2.7-0.3,3.9-0.8c1.2-0.6,2.2-1.3,2.8-2.2
	c0.6-0.9,1-1.9,1-3c0-1.2-0.5-2.4-1.4-3.5c-1.3-1.6-3.7-3.5-7.1-5.7c-3.5-2.2-5.6-3.9-6.5-4.9c-1.5-1.7-2.2-3.5-2.2-5.5
	c0-1.6,0.4-3,1.3-4.2c0.9-1.3,2.1-2.3,3.7-3s3.3-1.1,5.1-1.1c2,0,3.8,0.4,5.5,1.3c1.7,0.8,3.5,2.4,5.4,4.6l-3.4,2.2
	c-1.6-1.8-2.9-3-4-3.5c-1.1-0.6-2.3-0.8-3.6-0.8c-1.7,0-3,0.4-4.1,1.3c-1.1,0.9-1.6,2-1.6,3.2c0,0.8,0.2,1.5,0.6,2.3
	c0.4,0.7,1.1,1.5,2.1,2.4c0.5,0.5,2.3,1.6,5.4,3.6c3.6,2.3,6.1,4.3,7.4,6.1s2,3.6,2,5.4c0,2.6-1.1,4.8-3.4,6.7
	c-2.3,1.9-5.1,2.9-8.3,2.9c-2.5,0-4.8-0.6-6.9-1.7C538.3,135.8,536.4,133.9,534.7,131.2z"/>
<path class="st0" d="M584.7,102.1l19.3,35.7h-4.5l-6.5-11.8h-17.9l-6.5,11.8h-4.6l19.6-35.7H584.7z M584.1,109.7l-7.1,12.9h14.2
	L584.1,109.7z"/>
<path class="st0" d="M610.5,137.8v-35.7h0.9l27.6,27.4v-27.4h4.1v35.7h-0.9l-27.4-27v27H610.5z"/>
<path class="st0" d="M429.1,155.3h4.1v15h21.1v-15h4.1V191h-4.1v-17.2h-21.1V191h-4.1V155.3z"/>
<path class="st0" d="M484.6,155.3L504,191h-4.5l-6.5-11.8h-17.9l-6.5,11.8H464l19.6-35.7H484.6z M478.3,146.9c0.9,0,1.7,0.3,2.3,0.8
	c0.6,0.6,1,1.2,1,2c0,0.8-0.3,1.4-1,2c-0.6,0.6-1.4,0.8-2.3,0.8s-1.7-0.3-2.3-0.8c-0.6-0.6-1-1.2-1-2c0-0.8,0.3-1.4,1-2
	C476.6,147.2,477.4,146.9,478.3,146.9z M484.1,162.9l-7.1,12.9h14.2L484.1,162.9z M489.8,146.9c0.9,0,1.7,0.3,2.3,0.8
	c0.6,0.6,1,1.2,1,2c0,0.8-0.3,1.4-1,2c-0.6,0.6-1.4,0.8-2.3,0.8c-0.9,0-1.7-0.3-2.3-0.8c-0.6-0.6-1-1.2-1-2c0-0.8,0.3-1.4,1-2
	C488.1,147.2,488.9,146.9,489.8,146.9z"/>
<path class="st0" d="M510.4,155.3h4.1v32.3h16v3.4h-20.1V155.3z"/>
<path class="st0" d="M534.7,184.4l3.5-1.8c2.5,3.9,5.3,5.9,8.6,5.9c1.4,0,2.7-0.3,3.9-0.8s2.2-1.3,2.8-2.2c0.6-0.9,1-1.9,1-3
	c0-1.2-0.5-2.4-1.4-3.5c-1.3-1.6-3.7-3.5-7.1-5.7c-3.5-2.2-5.6-3.9-6.5-4.9c-1.5-1.7-2.2-3.5-2.2-5.5c0-1.6,0.4-3,1.3-4.2
	c0.9-1.3,2.1-2.3,3.7-3s3.3-1.1,5.1-1.1c2,0,3.8,0.4,5.5,1.3c1.7,0.8,3.5,2.4,5.4,4.6l-3.4,2.2c-1.6-1.8-2.9-3-4-3.5
	c-1.1-0.6-2.3-0.8-3.6-0.8c-1.7,0-3,0.4-4.1,1.3c-1.1,0.9-1.6,2-1.6,3.2c0,0.8,0.2,1.5,0.6,2.3c0.4,0.7,1.1,1.5,2.1,2.4
	c0.5,0.5,2.3,1.6,5.4,3.6c3.6,2.3,6.1,4.3,7.4,6.1c1.3,1.8,2,3.6,2,5.4c0,2.6-1.1,4.8-3.4,6.7c-2.3,1.9-5.1,2.9-8.3,2.9
	c-2.5,0-4.8-0.6-6.9-1.7C538.3,189,536.4,187.1,534.7,184.4z"/>
<path class="st0" d="M584.7,155.3L604,191h-4.5l-6.5-11.8h-17.9l-6.5,11.8h-4.6l19.6-35.7H584.7z M584.1,162.9l-7.1,12.9h14.2
	L584.1,162.9z"/>
<path class="st0" d="M610.5,191v-35.7h0.9l27.6,27.4v-27.4h4.1V191h-0.9l-27.4-27v27H610.5z"/>
<path class="st1" d="M699.9-3.6c0,0-35.7,94,138.2,54.5C795.7,67.8,631.3,128,699.9-3.6L699.9-3.6z"/>
<path class="st1" d="M759.4,73.3c0,0-100.5-0.5-2.7,148.5C726.1,188.1,612.1,55.1,759.4,73.3L759.4,73.3z"/>
<path class="st1" d="M745.2,52.8c11.9,0,21.6-9.7,21.6-21.6c0-11.9-9.7-21.6-21.6-21.6c-11.9,0-21.6,9.7-21.6,21.6
	C723.5,43.1,733.2,52.8,745.2,52.8L745.2,52.8z"/>
<g id="Västerleden_litet_v_xA0_Urklippsbana">
	<g>
		<path class="st1" d="M100.6,13.3c1.6,0,3-0.6,4.2-1.7c1.2-1.2,1.7-2.6,1.7-4.2c0-1.6-0.6-3-1.7-4.2c-1.2-1.2-2.6-1.7-4.2-1.7
			c-1.6,0-3,0.6-4.2,1.7c-1.2,1.2-1.7,2.6-1.7,4.2c0,1.6,0.6,3,1.7,4.2C97.6,12.7,99,13.3,100.6,13.3z M110.8,33.7
			c-2.8-3.9-6.1-6.8-9.8-8.8C97.3,23,93.2,22,88.6,22c-7.9,0-14.7,2.9-20.3,8.6c-5.6,5.7-8.5,12.6-8.5,20.6c0,8.2,2.8,15.2,8.4,20.9
			c5.6,5.7,12.3,8.6,20.2,8.6c4.4,0,8.5-0.9,12.3-2.8c3.7-1.8,7.1-4.6,10.1-8.2v9.6h5.9V23.5h-5.9V33.7z M108.4,63
			c-1.9,3.4-4.6,6.1-8.1,8c-3.5,2-7.2,3-11.2,3c-3.9,0-7.5-1-10.9-3c-3.4-2-6.1-4.8-8.1-8.4c-2-3.6-3-7.3-3-11.3c0-4,1-7.7,3-11.3
			s4.7-6.3,8.1-8.3c3.4-2,7.1-2.9,11.1-2.9c6.2,0,11.4,2.2,15.7,6.5c4.2,4.3,6.4,9.7,6.4,16.2C111.3,55.8,110.3,59.6,108.4,63z
			 M79.7,13.3c1.6,0,3-0.6,4.2-1.7c1.2-1.2,1.7-2.6,1.7-4.2c0-1.6-0.6-3-1.7-4.2c-1.2-1.2-2.6-1.7-4.2-1.7s-3,0.6-4.2,1.7
			c-1.2,1.2-1.7,2.6-1.7,4.2c0,1.6,0.6,3,1.7,4.2C76.7,12.7,78.1,13.3,79.7,13.3z M153.5,47.5c-4.4-2.3-7.3-4.2-8.6-5.9
			c-1.4-1.6-2.1-3.4-2.1-5.2c0-2,0.8-3.8,2.5-5.4c1.7-1.5,3.7-2.3,6-2.3c3.7,0,7.4,1.9,11.2,5.6l4.6-4.8c-5.2-5-10.4-7.5-15.5-7.5
			c-4.4,0-8.1,1.4-11,4.2c-2.9,2.8-4.3,6.3-4.3,10.6c0,3.2,0.9,6.1,2.7,8.7c1.8,2.5,5.2,5.1,10.3,7.7c4.7,2.4,7.7,4.4,9,5.9
			c1.3,1.6,2,3.4,2,5.5c0,2.5-1,4.7-3,6.5c-2,1.8-4.5,2.8-7.3,2.8c-4.1,0-8-2.1-11.7-6.2l-4.5,5.1c1.9,2.5,4.3,4.4,7.3,5.8
			c2.9,1.4,6,2.1,9.2,2.1c4.8,0,8.8-1.6,12.1-4.8c3.2-3.2,4.8-7.1,4.8-11.6c0-3.2-0.9-6.2-2.8-8.8C162.5,52.9,158.8,50.2,153.5,47.5
			z M199.6,2.8h-7.2v20.7h-9.8v6.2h9.8v49.5h7.2V29.7h11.4v-6.2h-11.4V2.8z M275.5,32.8c-5.7-7.2-13.3-10.8-22.8-10.8
			c-9.2,0-16.6,3.5-22.1,10.6c-4.3,5.5-6.5,11.8-6.5,18.9c0,7.5,2.6,14.3,7.7,20.2c5.1,6,12.2,8.9,21.3,8.9c4.1,0,7.8-0.6,11-1.9
			c3.2-1.2,6.2-3.1,8.8-5.5c2.6-2.4,4.9-5.5,6.9-9.4l-6-3.2c-2.2,3.6-4.2,6.3-6.1,7.9c-1.9,1.6-4.2,2.9-6.8,3.9
			c-2.7,1-5.4,1.5-8.3,1.5c-5.9,0-10.8-2.1-14.8-6.2c-4-4.1-6.1-9.4-6.2-15.9h50.2C281.6,44.3,279.5,37.9,275.5,32.8z M232.2,45.7
			c1.5-5.1,3.6-9,6.5-11.5c3.9-3.5,8.6-5.3,14.1-5.3c3.3,0,6.5,0.7,9.5,2.1c3,1.4,5.4,3.2,7.3,5.5c1.8,2.3,3.2,5.3,4.2,9.2H232.2z
			 M314,24.4c-2.4,1.6-4.7,4-6.9,7.2v-8.1h-7.3v55.7h7.3V60.3c0-9.7,0.4-16.1,1.3-19.3c1.2-4.1,2.9-7.2,5.1-9.1
			c2.2-2,4.5-2.9,6.9-2.9c1,0,2.3,0.3,3.8,1l3.7-6c-2.3-1.3-4.4-1.9-6.4-1.9C319,22,316.4,22.8,314,24.4z M343.9,79.2h7.2V1.9h-7.2
			V79.2z M421,32.8c-5.7-7.2-13.3-10.8-22.8-10.8c-9.2,0-16.6,3.5-22.1,10.6c-4.3,5.5-6.5,11.8-6.5,18.9c0,7.5,2.6,14.3,7.7,20.2
			c5.1,6,12.2,8.9,21.3,8.9c4.1,0,7.8-0.6,11-1.9c3.2-1.2,6.2-3.1,8.8-5.5c2.6-2.4,4.9-5.5,6.9-9.4l-6-3.2c-2.2,3.6-4.2,6.3-6.1,7.9
			c-1.9,1.6-4.2,2.9-6.8,3.9c-2.7,1-5.4,1.5-8.3,1.5c-5.9,0-10.8-2.1-14.8-6.2c-4-4.1-6.1-9.4-6.2-15.9h50.2
			C427,44.3,425,37.9,421,32.8z M377.7,45.7c1.5-5.1,3.6-9,6.5-11.5c3.9-3.5,8.6-5.3,14.1-5.3c3.3,0,6.5,0.7,9.5,2.1
			c3,1.4,5.4,3.2,7.3,5.5c1.8,2.3,3.2,5.3,4.2,9.2H377.7z M493,33.7c-2.8-3.9-6.1-6.8-9.8-8.8c-3.7-1.9-7.8-2.9-12.4-2.9
			c-7.9,0-14.7,2.9-20.3,8.6c-5.6,5.7-8.5,12.6-8.5,20.6c0,8.2,2.8,15.2,8.4,20.9c5.6,5.7,12.3,8.6,20.2,8.6c4.4,0,8.5-0.9,12.3-2.8
			c3.7-1.8,7.1-4.6,10.1-8.2v9.6h7.1V1.9H493V33.7z M490.6,63c-1.9,3.4-4.6,6.1-8.1,8c-3.5,2-7.2,3-11.2,3c-3.9,0-7.5-1-10.9-3
			c-3.4-2-6.1-4.8-8.1-8.4c-2-3.6-3-7.3-3-11.3c0-4,1-7.7,3-11.3s4.7-6.3,8.1-8.3c3.4-2,7.1-2.9,11.1-2.9c6.2,0,11.4,2.2,15.7,6.5
			c4.2,4.3,6.4,9.7,6.4,16.2C493.5,55.8,492.5,59.6,490.6,63z M570.1,32.8c-5.7-7.2-13.3-10.8-22.8-10.8c-9.2,0-16.6,3.5-22.1,10.6
			c-4.3,5.5-6.5,11.8-6.5,18.9c0,7.5,2.6,14.3,7.7,20.2c5.1,6,12.2,8.9,21.3,8.9c4.1,0,7.8-0.6,11-1.9c3.2-1.2,6.2-3.1,8.8-5.5
			c2.6-2.4,4.9-5.5,6.9-9.4l-6-3.2c-2.2,3.6-4.2,6.3-6.1,7.9c-1.9,1.6-4.2,2.9-6.8,3.9c-2.7,1-5.4,1.5-8.3,1.5
			c-5.9,0-10.8-2.1-14.8-6.2c-4-4.1-6.1-9.4-6.2-15.9h50.2C576.2,44.3,574.1,37.9,570.1,32.8z M526.8,45.7c1.5-5.1,3.6-9,6.5-11.5
			c3.9-3.5,8.6-5.3,14.1-5.3c3.3,0,6.5,0.7,9.5,2.1c3,1.4,5.4,3.2,7.3,5.5c1.8,2.3,3.2,5.3,4.2,9.2H526.8z M642.2,33.7
			c-1.5-3.6-3.9-6.4-7.1-8.6c-3.2-2.1-6.9-3.2-11.1-3.2c-4.1,0-7.9,0.9-11.4,2.8c-3.5,1.9-6.7,4.8-9.5,8.6v-10h-7.2v55.7h7.2V58.7
			c0-7.3,0.3-12.4,1-15.2c1.1-4.2,3.4-7.8,6.8-10.7c3.4-2.9,7.3-4.3,11.7-4.3c3.8,0,6.9,0.9,9.2,2.8c2.4,1.9,4,4.6,4.8,8.3
			c0.5,2.2,0.8,6.4,0.8,12.9v26.6h7.2V50.5C644.5,42.9,643.8,37.3,642.2,33.7z"/>
	</g>
</g>
<polygon class="st1" points="25.7,78.4 25.8,78.4 51.3,22.6 43.7,22.6 25.2,63.3 7.6,22.6 0,22.6 "/>
<path class="st2" d="M666.4,199.6h-1.4c-1.3,0-2.4-1.1-2.4-2.4V2.4c0-1.3,1.1-2.4,2.4-2.4l1.4,0c1.3,0,2.4,1.1,2.4,2.4v194.7
	C668.8,198.5,667.7,199.6,666.4,199.6z"/>
</svg>
